<?xml version="1.0" encoding="UTF-8"?><svg id="Layer_2" xmlns="http://www.w3.org/2000/svg" viewBox="0 0 1463.41 245.31"><defs><style>.cls-1{fill:#cf0074;}.cls-2{fill:#990079;}.cls-3{fill:#b7006d;}.cls-4{fill:#fdc54a;}.cls-5{fill:#e87f03;}.cls-6{fill:#fc9200;}.cls-7{fill:#fc055e;}</style></defs><g id="Layer_1-2"><g><polygon class="cls-1" points="90.88 35.44 90.88 140.37 181.76 87.9 90.88 35.44"/><polygon class="cls-1" points="0 87.9 90.88 140.37 90.88 35.44 0 87.9"/><polygon class="cls-3" points="0 87.9 0 192.84 90.88 140.37 0 87.9"/><polygon class="cls-7" points="201.48 39.88 166.95 59.81 166.95 19.94 201.48 39.88"/><polygon class="cls-7" points="201.48 39.88 201.48 79.75 166.95 59.81 201.48 39.88"/><polygon class="cls-3" points="0 192.84 90.88 245.31 90.88 140.37 0 192.84"/><polygon class="cls-7" points="90.88 140.37 90.88 245.31 181.76 192.84 90.88 140.37"/><polygon class="cls-7" points="90.88 140.37 181.76 192.84 181.76 87.9 90.88 140.37"/><polygon class="cls-1" points="201.48 0 201.48 39.88 166.95 19.94 201.48 0"/><polygon class="cls-1" points="236.02 19.94 201.48 39.88 201.48 0 236.02 19.94"/><polygon class="cls-2" points="236.02 19.94 236.02 59.81 201.48 39.88 236.02 19.94"/><polygon class="cls-2" points="236.02 59.81 201.48 79.75 201.48 39.88 236.02 59.81"/><polygon class="cls-5" points="271.31 38.43 249.5 51.02 249.5 25.83 271.31 38.43"/><polygon class="cls-5" points="271.31 38.43 271.31 63.61 249.5 51.02 271.31 38.43"/><polygon class="cls-6" points="271.31 13.24 271.31 38.43 249.5 25.83 271.31 13.24"/><polygon class="cls-6" points="293.12 25.83 271.31 38.43 271.31 13.24 293.12 25.83"/><polygon class="cls-4" points="293.12 25.83 293.12 51.02 271.31 38.43 293.12 25.83"/><polygon class="cls-4" points="293.12 51.02 271.31 63.61 271.31 38.43 293.12 51.02"/><polygon class="cls-5" points="251.98 133.12 195.64 165.65 195.64 100.59 251.98 133.12"/><polygon class="cls-5" points="251.98 133.12 251.98 198.18 195.64 165.65 251.98 133.12"/><polygon class="cls-4" points="251.98 68.06 251.98 133.12 195.64 100.59 251.98 68.06"/><polygon class="cls-4" points="308.32 100.59 251.98 133.12 251.98 68.06 308.32 100.59"/><polygon class="cls-6" points="308.32 100.59 308.32 165.65 251.98 133.12 308.32 100.59"/><polygon class="cls-6" points="308.32 165.65 251.98 198.18 251.98 133.12 308.32 165.65"/></g><g><path d="M410.48,94.62c1.38,0,2.95,.09,4.73,.26,1.78,.17,3.53,.4,5.25,.69,1.72,.29,3.29,.58,4.73,.86,1.43,.29,2.49,.54,3.18,.77l-2.75,13.93c-1.26-.46-3.35-1-6.28-1.63-2.92-.63-6.68-.95-11.27-.95-2.98,0-5.93,.32-8.86,.95-2.92,.63-4.85,1.06-5.76,1.29v75.16h-16V100.3c3.78-1.38,8.48-2.67,14.1-3.87,5.62-1.2,11.92-1.81,18.92-1.81Z"/><path d="M472.74,94.28c6.42,0,11.84,.83,16.25,2.49,4.41,1.66,7.97,4.01,10.66,7.05,2.69,3.04,4.61,6.65,5.76,10.84,1.15,4.19,1.72,8.8,1.72,13.85v55.9c-1.38,.23-3.3,.55-5.76,.95-2.47,.4-5.25,.77-8.34,1.12-3.1,.34-6.45,.66-10.06,.95-3.61,.29-7.2,.43-10.75,.43-5.05,0-9.69-.52-13.93-1.55-4.24-1.03-7.91-2.67-11.01-4.9-3.1-2.24-5.5-5.19-7.22-8.86-1.72-3.67-2.58-8.08-2.58-13.24s1-9.17,3.01-12.73c2-3.55,4.73-6.42,8.17-8.6,3.44-2.18,7.45-3.78,12.04-4.82,4.58-1.03,9.4-1.55,14.45-1.55,1.6,0,3.27,.09,4.99,.26,1.72,.17,3.35,.4,4.9,.69,1.55,.29,2.89,.54,4.04,.77,1.15,.23,1.95,.4,2.41,.52v-4.47c0-2.64-.29-5.25-.86-7.83-.58-2.58-1.61-4.87-3.1-6.88-1.49-2-3.53-3.61-6.11-4.82-2.58-1.2-5.93-1.81-10.06-1.81-5.28,0-9.89,.37-13.85,1.12-3.96,.75-6.91,1.52-8.86,2.32l-1.89-13.24c2.06-.92,5.5-1.81,10.32-2.67s10.03-1.29,15.65-1.29Zm1.38,80.15c3.78,0,7.14-.09,10.06-.26,2.92-.17,5.36-.49,7.31-.95v-26.66c-1.15-.57-3.01-1.06-5.59-1.46-2.58-.4-5.71-.6-9.37-.6-2.41,0-4.96,.17-7.65,.52-2.7,.34-5.16,1.06-7.4,2.15-2.24,1.09-4.1,2.58-5.59,4.47-1.49,1.89-2.24,4.39-2.24,7.48,0,5.74,1.83,9.72,5.5,11.95,3.67,2.24,8.66,3.35,14.96,3.35Z"/><path d="M541.54,80.34c-2.87,0-5.3-.95-7.31-2.84-2.01-1.89-3.01-4.44-3.01-7.65s1-5.76,3.01-7.65c2-1.89,4.44-2.84,7.31-2.84s5.3,.95,7.31,2.84c2,1.89,3.01,4.45,3.01,7.65s-1,5.76-3.01,7.65c-2.01,1.89-4.45,2.84-7.31,2.84Zm8.08,105.61h-16V96.51h16v89.44Z"/><path d="M577.15,99.09c3.67-.92,8.54-1.89,14.62-2.92,6.08-1.03,13.07-1.55,20.98-1.55,7.11,0,13.01,1.01,17.72,3.01,4.7,2.01,8.45,4.82,11.27,8.43,2.81,3.61,4.79,7.94,5.93,12.99,1.15,5.05,1.72,10.61,1.72,16.68v50.22h-16v-46.78c0-5.5-.37-10.2-1.12-14.1-.75-3.9-1.98-7.05-3.7-9.46-1.72-2.41-4.01-4.16-6.88-5.25-2.87-1.09-6.42-1.63-10.66-1.63-1.72,0-3.5,.06-5.33,.17-1.83,.12-3.58,.26-5.25,.43-1.66,.17-3.16,.37-4.47,.6-1.32,.23-2.27,.4-2.84,.52v75.51h-16V99.09Z"/><path d="M670.88,141.4c0-7.91,1.14-14.82,3.44-20.73,2.29-5.9,5.33-10.81,9.12-14.71,3.78-3.9,8.14-6.82,13.07-8.77,4.93-1.95,9.98-2.92,15.14-2.92,12.04,0,21.27,3.76,27.69,11.27,6.42,7.51,9.63,18.95,9.63,34.31v2.67c0,1.09-.06,2.09-.17,3.01h-61.23c.69,9.29,3.38,16.34,8.08,21.16,4.7,4.82,12.04,7.22,22.02,7.22,5.62,0,10.35-.49,14.19-1.46,3.84-.97,6.73-1.92,8.69-2.84l2.24,13.42c-1.95,1.03-5.36,2.12-10.23,3.27-4.88,1.15-10.41,1.72-16.6,1.72-7.8,0-14.53-1.18-20.21-3.53s-10.35-5.59-14.02-9.72c-3.67-4.13-6.39-9.03-8.17-14.71-1.78-5.68-2.67-11.89-2.67-18.66Zm61.4-8.77c.11-7.22-1.69-13.16-5.42-17.8-3.73-4.64-8.86-6.97-15.39-6.97-3.67,0-6.91,.72-9.72,2.15-2.81,1.43-5.19,3.3-7.14,5.59-1.95,2.29-3.47,4.93-4.56,7.91-1.09,2.98-1.81,6.02-2.15,9.12h44.38Z"/><path d="M792.83,174.43c6.54,0,11.38-.86,14.53-2.58,3.15-1.72,4.73-4.47,4.73-8.26s-1.55-6.99-4.64-9.29c-3.1-2.29-8.2-4.87-15.31-7.74-3.44-1.38-6.74-2.78-9.89-4.21-3.16-1.43-5.88-3.12-8.17-5.07-2.29-1.95-4.13-4.3-5.5-7.05s-2.06-6.13-2.06-10.15c0-7.91,2.92-14.19,8.77-18.83,5.85-4.64,13.82-6.97,23.91-6.97,2.52,0,5.04,.15,7.57,.43,2.52,.29,4.87,.63,7.05,1.03,2.18,.4,4.1,.83,5.76,1.29,1.66,.46,2.95,.86,3.87,1.2l-2.92,13.76c-1.72-.92-4.42-1.86-8.08-2.84-3.67-.97-8.08-1.46-13.24-1.46-4.47,0-8.37,.89-11.7,2.67-3.33,1.78-4.99,4.56-4.99,8.34,0,1.95,.37,3.67,1.12,5.16,.74,1.49,1.89,2.84,3.44,4.04,1.55,1.2,3.47,2.32,5.76,3.35,2.29,1.03,5.04,2.12,8.26,3.27,4.24,1.61,8.02,3.18,11.35,4.73,3.33,1.55,6.16,3.35,8.51,5.42,2.35,2.06,4.15,4.56,5.42,7.48,1.26,2.92,1.89,6.51,1.89,10.75,0,8.26-3.07,14.51-9.2,18.75-6.14,4.24-14.88,6.36-26.23,6.36-7.91,0-14.1-.66-18.58-1.98-4.47-1.32-7.51-2.32-9.12-3.01l2.92-13.76c1.83,.69,4.76,1.72,8.77,3.1,4.01,1.38,9.34,2.06,16,2.06Z"/><path d="M946.25,55.23l16-2.75V183.37c-3.67,1.03-8.37,2.06-14.1,3.1-5.74,1.03-12.33,1.55-19.78,1.55-6.88,0-13.07-1.09-18.58-3.27s-10.21-5.27-14.1-9.29c-3.9-4.01-6.91-8.91-9.03-14.71-2.12-5.79-3.18-12.3-3.18-19.52s.89-13.18,2.67-18.92c1.78-5.73,4.39-10.66,7.83-14.79,3.44-4.13,7.65-7.34,12.64-9.63,4.99-2.29,10.69-3.44,17.11-3.44,5.16,0,9.72,.69,13.67,2.06s6.91,2.7,8.86,3.96V55.23Zm0,60.2c-1.95-1.6-4.76-3.15-8.43-4.64-3.67-1.49-7.68-2.24-12.04-2.24-4.59,0-8.51,.83-11.78,2.49-3.27,1.66-5.93,3.96-8,6.88-2.06,2.92-3.56,6.39-4.47,10.41-.92,4.02-1.38,8.32-1.38,12.9,0,10.44,2.58,18.49,7.74,24.17,5.16,5.68,12.04,8.51,20.64,8.51,4.36,0,8-.2,10.92-.6,2.92-.4,5.19-.83,6.79-1.29v-56.59Z"/><path d="M984.78,141.4c0-7.91,1.14-14.82,3.44-20.73,2.29-5.9,5.33-10.81,9.12-14.71,3.78-3.9,8.14-6.82,13.07-8.77,4.93-1.95,9.98-2.92,15.14-2.92,12.04,0,21.27,3.76,27.69,11.27,6.42,7.51,9.63,18.95,9.63,34.31v2.67c0,1.09-.06,2.09-.17,3.01h-61.23c.69,9.29,3.38,16.34,8.08,21.16,4.7,4.82,12.04,7.22,22.02,7.22,5.62,0,10.35-.49,14.19-1.46,3.84-.97,6.73-1.92,8.69-2.84l2.24,13.42c-1.95,1.03-5.36,2.12-10.23,3.27-4.88,1.15-10.41,1.72-16.6,1.72-7.8,0-14.53-1.18-20.21-3.53s-10.35-5.59-14.02-9.72c-3.67-4.13-6.39-9.03-8.17-14.71-1.78-5.68-2.67-11.89-2.67-18.66Zm61.4-8.77c.11-7.22-1.69-13.16-5.42-17.8-3.73-4.64-8.86-6.97-15.39-6.97-3.67,0-6.91,.72-9.72,2.15-2.81,1.43-5.19,3.3-7.14,5.59-1.95,2.29-3.47,4.93-4.56,7.91-1.09,2.98-1.81,6.02-2.15,9.12h44.38Z"/><path d="M1085.91,99.09c3.67-.92,8.51-1.89,14.53-2.92,6.02-1.03,12.99-1.55,20.9-1.55,5.73,0,10.55,.77,14.45,2.32,3.9,1.55,7.17,3.81,9.8,6.79,.8-.57,2.06-1.38,3.78-2.41,1.72-1.03,3.84-2.03,6.36-3.01,2.52-.97,5.33-1.83,8.43-2.58,3.1-.74,6.42-1.12,9.98-1.12,6.88,0,12.5,1.01,16.86,3.01,4.36,2.01,7.77,4.84,10.23,8.51,2.46,3.67,4.13,8.03,4.99,13.07,.86,5.05,1.29,10.55,1.29,16.51v50.22h-16v-46.78c0-5.27-.26-9.8-.77-13.59-.52-3.78-1.49-6.94-2.92-9.46-1.43-2.52-3.38-4.39-5.85-5.59-2.47-1.2-5.65-1.81-9.55-1.81-5.39,0-9.83,.72-13.33,2.15-3.5,1.44-5.88,2.73-7.14,3.87,.92,2.98,1.6,6.25,2.06,9.8,.46,3.55,.69,7.28,.69,11.18v50.22h-16v-46.78c0-5.27-.29-9.8-.86-13.59-.58-3.78-1.58-6.94-3.01-9.46-1.44-2.52-3.38-4.39-5.85-5.59-2.47-1.2-5.59-1.81-9.37-1.81-1.61,0-3.33,.06-5.16,.17-1.83,.12-3.58,.26-5.25,.43-1.66,.17-3.18,.37-4.56,.6-1.38,.23-2.29,.4-2.75,.52v75.51h-16V99.09Z"/><path d="M1241.91,80.34c-2.87,0-5.3-.95-7.31-2.84-2.01-1.89-3.01-4.44-3.01-7.65s1-5.76,3.01-7.65c2-1.89,4.44-2.84,7.31-2.84s5.3,.95,7.31,2.84c2,1.89,3.01,4.45,3.01,7.65s-1,5.76-3.01,7.65c-2.01,1.89-4.45,2.84-7.31,2.84Zm8.08,105.61h-16V96.51h16v89.44Z"/><path d="M1277.52,99.09c3.67-.92,8.54-1.89,14.62-2.92,6.08-1.03,13.07-1.55,20.98-1.55,7.11,0,13.01,1.01,17.72,3.01,4.7,2.01,8.46,4.82,11.27,8.43,2.81,3.61,4.79,7.94,5.93,12.99,1.14,5.05,1.72,10.61,1.72,16.68v50.22h-16v-46.78c0-5.5-.37-10.2-1.12-14.1-.75-3.9-1.98-7.05-3.7-9.46-1.72-2.41-4.02-4.16-6.88-5.25-2.87-1.09-6.42-1.63-10.66-1.63-1.72,0-3.5,.06-5.33,.17-1.83,.12-3.58,.26-5.25,.43-1.66,.17-3.16,.37-4.47,.6-1.32,.23-2.27,.4-2.84,.52v75.51h-16V99.09Z"/><path d="M1391.21,96.51h33.88v13.42h-33.88v41.28c0,4.47,.34,8.17,1.03,11.09,.69,2.92,1.72,5.22,3.1,6.88,1.38,1.66,3.1,2.84,5.16,3.53,2.06,.69,4.47,1.03,7.22,1.03,4.82,0,8.69-.54,11.61-1.63,2.92-1.09,4.96-1.86,6.11-2.32l3.1,13.24c-1.61,.8-4.42,1.81-8.43,3.01-4.02,1.2-8.6,1.81-13.76,1.81-6.08,0-11.09-.77-15.05-2.32s-7.14-3.87-9.55-6.97c-2.41-3.1-4.1-6.91-5.07-11.44-.98-4.53-1.46-9.77-1.46-15.74V71.57l16-2.75v27.69Z"/></g></g></svg>