<svg xmlns="http://www.w3.org/2000/svg" viewBox="0 0 1542.63 245.31"><defs><style>.cls-1{fill:#cf0074;}.cls-2{fill:#b7006d;}.cls-3{fill:#fc055e;}.cls-4{fill:#990079;}.cls-5{fill:#e87f03;}.cls-6{fill:#fc9200;}.cls-7{fill:#fdc54a;}</style></defs><g id="Layer_2" data-name="Layer 2"><g id="Layer_1-2" data-name="Layer 1"><polygon class="cls-1" points="90.88 35.44 90.88 140.37 181.76 87.9 90.88 35.44"/><polygon class="cls-1" points="0 87.9 90.88 140.37 90.88 35.44 0 87.9"/><polygon class="cls-2" points="0 87.9 0 192.84 90.88 140.37 0 87.9"/><polygon class="cls-3" points="201.48 39.88 166.95 59.81 166.95 19.94 201.48 39.88"/><polygon class="cls-3" points="201.48 39.88 201.48 79.75 166.95 59.81 201.48 39.88"/><polygon class="cls-2" points="0 192.84 90.88 245.31 90.88 140.37 0 192.84"/><polygon class="cls-3" points="90.88 140.37 90.88 245.31 181.76 192.84 90.88 140.37"/><polygon class="cls-3" points="90.88 140.37 181.76 192.84 181.76 87.9 90.88 140.37"/><polygon class="cls-1" points="201.48 0 201.48 39.88 166.95 19.94 201.48 0"/><polygon class="cls-1" points="236.02 19.94 201.48 39.88 201.48 0 236.02 19.94"/><polygon class="cls-4" points="236.02 19.94 236.02 59.81 201.48 39.88 236.02 19.94"/><polygon class="cls-4" points="236.02 59.81 201.48 79.75 201.48 39.88 236.02 59.81"/><polygon class="cls-5" points="271.31 38.43 249.5 51.02 249.5 25.83 271.31 38.43"/><polygon class="cls-5" points="271.31 38.43 271.31 63.61 249.5 51.02 271.31 38.43"/><polygon class="cls-6" points="271.31 13.24 271.31 38.43 249.5 25.83 271.31 13.24"/><polygon class="cls-6" points="293.12 25.83 271.31 38.43 271.31 13.24 293.12 25.83"/><polygon class="cls-7" points="293.12 25.83 293.12 51.02 271.31 38.43 293.12 25.83"/><polygon class="cls-7" points="293.12 51.02 271.31 63.61 271.31 38.43 293.12 51.02"/><polygon class="cls-5" points="251.98 133.12 195.63 165.65 195.63 100.59 251.98 133.12"/><polygon class="cls-5" points="251.98 133.12 251.98 198.18 195.63 165.65 251.98 133.12"/><polygon class="cls-7" points="251.98 68.06 251.98 133.12 195.63 100.59 251.98 68.06"/><polygon class="cls-7" points="308.32 100.59 251.98 133.12 251.98 68.06 308.32 100.59"/><polygon class="cls-6" points="308.32 100.59 308.32 165.65 251.98 133.12 308.32 100.59"/><polygon class="cls-6" points="308.32 165.65 251.98 198.18 251.98 133.12 308.32 165.65"/><path d="M466.68,58.92q0,12.72-6.69,20a37.79,37.79,0,0,1-17.6,10.6q2.61,3.25,6.76,8.8t8.56,12.14q4.4,6.6,8.64,13.78A139.28,139.28,0,0,1,473.52,138h-11.9q-3.42-6.53-7.41-13t-8.15-12.63Q441.89,106.19,438,101l-6.85-9.13c-3.48.33-6.95.49-10.43.49H402.45V138H391.37V27.14a78.11,78.11,0,0,1,13.77-2.36Q413,24,419.73,24q23.31,0,35.13,8.8T466.68,58.92ZM421,33.66q-6.21,0-10.84.41t-7.75.73V82.88h15.33a136,136,0,0,0,14.5-.73,34.61,34.61,0,0,0,11.9-3.26,19.44,19.44,0,0,0,8-7.25q2.93-4.73,2.93-12.88,0-7.5-2.93-12.39a22.27,22.27,0,0,0-7.66-7.74,31.24,31.24,0,0,0-10.84-3.91A73.55,73.55,0,0,0,421,33.66Z" transform="translate(0 -3.01)"/><path d="M572.78,138q-3.22-8.32-5.94-16t-5.19-15H506.46q-2.82,7.32-5.53,15t-5.73,16H483.63q6.44-17.64,12.15-32.87T507,76.28q5.5-13.59,10.93-26.12T529.34,25h9.78q6,12.54,11.34,25.1t10.88,26.15q5.52,13.58,11.19,28.84T585,138ZM533.91,37.73Q527.78,51.82,522,66.3t-12,31.25h48.21Q551.9,80.77,546,66.25T533.91,37.73Z" transform="translate(0 -3.01)"/><path d="M601.15,25h11.08V138H601.15Z" transform="translate(0 -3.01)"/><path d="M718.51,138q-3.15-5.67-7.9-13.38t-10.55-16.35q-5.8-8.66-12.12-17.89t-12.57-18Q669.12,63.65,663.12,56T652.49,42.83V138H641.57V25h8.8q8.32,9.29,17.83,21.45t18.64,24.79Q696,83.89,703.89,96t13,21V25H727.8V138Z" transform="translate(0 -3.01)"/><path d="M757.14,138V25h65.2v9.62H768.22V73.92h48.25v9.45H768.22v45h58.36V138Z" transform="translate(0 -3.01)"/><path d="M871.89,130.81q13.2,0,20.54-4.82t7.33-15.6A20.86,20.86,0,0,0,897.4,100a22.2,22.2,0,0,0-6.28-7,41,41,0,0,0-9-4.89q-5.05-2-10.6-4.29A123.1,123.1,0,0,1,859,78.14a43.15,43.15,0,0,1-9.45-6.58,25.06,25.06,0,0,1-5.95-8.4,27.77,27.77,0,0,1-2-11.08q0-14.51,9.62-22t26.73-7.49a60.29,60.29,0,0,1,9,.65,67.2,67.2,0,0,1,8.24,1.71,62.91,62.91,0,0,1,7,2.36,27.89,27.89,0,0,1,5.3,2.77l-3.91,9.29A39.33,39.33,0,0,0,892,34.15a52.09,52.09,0,0,0-14.59-2,43.2,43.2,0,0,0-9.86,1.06,21.53,21.53,0,0,0-7.74,3.42,16.94,16.94,0,0,0-5.14,5.95,18.49,18.49,0,0,0-1.87,8.64,18.17,18.17,0,0,0,1.95,8.8,19.15,19.15,0,0,0,5.46,6.2A43.6,43.6,0,0,0,868.46,71q4.74,2.12,10.27,4.4,6.69,2.77,12.64,5.54a45.77,45.77,0,0,1,10.35,6.52,27.77,27.77,0,0,1,7,9.13,30.18,30.18,0,0,1,2.6,13.2q0,15.33-10.67,23t-28.94,7.66a80.13,80.13,0,0,1-11.89-.81,75.92,75.92,0,0,1-9.62-2A53.43,53.43,0,0,1,843,135a42.69,42.69,0,0,1-4.57-2.28l3.59-9.61q1.62,1,4.4,2.28A55.94,55.94,0,0,0,853,128a59.37,59.37,0,0,0,8.48,2A60.8,60.8,0,0,0,871.89,130.81Z" transform="translate(0 -3.01)"/><path d="M1058.68,81.42q0,14.51-4.56,25.26a48.54,48.54,0,0,1-12.79,17.93,54.12,54.12,0,0,1-19.65,10.76,83.36,83.36,0,0,1-25.1,3.59c-4.56,0-9.35-.25-14.34-.74A87.86,87.86,0,0,1,969,136V27.14a74,74,0,0,1,13.21-2.36c5-.49,9.78-.74,14.34-.74a83.36,83.36,0,0,1,25.1,3.59,54.27,54.27,0,0,1,19.65,10.76,48.45,48.45,0,0,1,12.79,17.93Q1058.68,67.08,1058.68,81.42ZM980.12,128.2c.65.11,2.31.32,5,.65a116.72,116.72,0,0,0,12.8.49,62,62,0,0,0,21.35-3.34,41.54,41.54,0,0,0,15.32-9.54,39.17,39.17,0,0,0,9.29-15.07,60.57,60.57,0,0,0,3.1-20,59.83,59.83,0,0,0-3.1-19.89,39.23,39.23,0,0,0-9.29-15A41.54,41.54,0,0,0,1019.24,37a62,62,0,0,0-21.35-3.34,116.72,116.72,0,0,0-12.8.49c-2.66.32-4.32.54-5,.65Z" transform="translate(0 -3.01)"/><path d="M1083.46,138V25h65.2v9.62h-54.12V73.92h48.25v9.45h-48.25v45h58.36V138Z" transform="translate(0 -3.01)"/><path d="M1224.78,121.68q-1.63-4.08-4.67-10.76t-6.79-14.59q-3.77-7.9-7.7-16.3t-7.53-15.73q-3.6-7.34-6.38-12.87t-4.09-7.83q-2.13,20.38-3.35,44.26t-2.2,50.12h-10.92q1.47-30.81,3.34-59T1179.14,25h9.78q4.89,8.16,10.45,18.83t11,22.16q5.46,11.49,10.61,22.66t9.07,20.13q3.92-9,9.06-20.13T1249.76,66q5.46-11.49,11-22.16T1271.24,25h9.29q2.76,25.75,4.64,54t3.34,59h-11.24q-1-26.25-2.2-50.12t-3.35-44.26q-1.31,2.28-4.07,7.83t-6.36,12.87q-3.58,7.33-7.5,15.73t-7.66,16.3q-3.75,7.9-6.76,14.59t-4.65,10.76Z" transform="translate(0 -3.01)"/><path d="M1314.92,25H1326V138h-11.08Z" transform="translate(0 -3.01)"/><path d="M1432.28,138q-3.15-5.67-7.9-13.38t-10.55-16.35q-5.8-8.66-12.12-17.89t-12.57-18q-6.26-8.74-12.25-16.37t-10.63-13.19V138h-10.92V25h8.8q8.33,9.29,17.83,21.45t18.64,24.79q9.14,12.63,17.05,24.69t13,21V25h10.93V138Z" transform="translate(0 -3.01)"/><path d="M1542.63,25v9.62h-36.19V138h-11.08V34.64h-36.19V25Z" transform="translate(0 -3.01)"/></g></g></svg>