<svg xmlns="http://www.w3.org/2000/svg" xmlns:xlink="http://www.w3.org/1999/xlink" viewBox="0 0 2497 592"><defs><style>.cls-1{fill:none;}.cls-2{clip-path:url(#clip-path);}.cls-3{clip-path:url(#clip-path-2);}.cls-4{clip-path:url(#clip-path-3);}.cls-5{fill:#377dff;}.cls-6{clip-path:url(#clip-path-4);}.cls-7{clip-path:url(#clip-path-7);}.cls-8{clip-path:url(#clip-path-10);}.cls-9{clip-path:url(#clip-path-13);}.cls-10{fill:#a3f2ff;}.cls-11{clip-path:url(#clip-path-16);}.cls-12{clip-path:url(#clip-path-19);}.cls-13{fill:#2b2929;}.cls-14{clip-path:url(#clip-path-22);}.cls-15{clip-path:url(#clip-path-23);}.cls-16{clip-path:url(#clip-path-24);}.cls-17{fill:#63cb85;}.cls-18{clip-path:url(#clip-path-25);}.cls-19{clip-path:url(#clip-path-28);}.cls-20{clip-path:url(#clip-path-31);}.cls-21{clip-path:url(#clip-path-34);}.cls-22{fill:#e4ffd9;}.cls-23{clip-path:url(#clip-path-37);}.cls-24{clip-path:url(#clip-path-40);}.cls-25{clip-path:url(#clip-path-43);}.cls-26{clip-path:url(#clip-path-44);}.cls-27{clip-path:url(#clip-path-45);}.cls-28{clip-path:url(#clip-path-46);}.cls-29{clip-path:url(#clip-path-49);}.cls-30{clip-path:url(#clip-path-52);}.cls-31{clip-path:url(#clip-path-55);}.cls-32{clip-path:url(#clip-path-58);}.cls-33{clip-path:url(#clip-path-61);}.cls-34{clip-path:url(#clip-path-64);}.cls-35{clip-path:url(#clip-path-65);}.cls-36{clip-path:url(#clip-path-66);}.cls-37{clip-path:url(#clip-path-67);}.cls-38{clip-path:url(#clip-path-70);}.cls-39{clip-path:url(#clip-path-73);}.cls-40{clip-path:url(#clip-path-76);}.cls-41{clip-path:url(#clip-path-79);}.cls-42{clip-path:url(#clip-path-82);}.cls-43{clip-path:url(#clip-path-85);}.cls-44{clip-path:url(#clip-path-86);}.cls-45{clip-path:url(#clip-path-87);}.cls-46{clip-path:url(#clip-path-88);}.cls-47{clip-path:url(#clip-path-91);}.cls-48{clip-path:url(#clip-path-94);}.cls-49{clip-path:url(#clip-path-97);}.cls-50{clip-path:url(#clip-path-100);}.cls-51{clip-path:url(#clip-path-103);}</style><clipPath id="clip-path"><rect class="cls-1" x="49.66" y="271.53" width="202.84" height="249.65" transform="translate(-268.16 460.85) rotate(-77.88)"/></clipPath><clipPath id="clip-path-2"><rect class="cls-1" x="34.11" y="67.52" width="421.29" height="497.36" transform="translate(-56.27 53) rotate(-11.09)"/></clipPath><clipPath id="clip-path-3"><polygon class="cls-1" points="-10.04 112.74 403.38 31.68 499.06 519.74 85.67 600.81 -10.04 112.74"/></clipPath><clipPath id="clip-path-4"><rect class="cls-1" x="261.45" y="232.39" width="195.04" height="249.65" transform="translate(-65.65 633.18) rotate(-77.88)"/></clipPath><clipPath id="clip-path-7"><rect class="cls-1" x="26.82" y="154.92" width="202.84" height="249.65" transform="translate(-172.19 346.39) rotate(-77.88)"/></clipPath><clipPath id="clip-path-10"><rect class="cls-1" x="235.53" y="111.96" width="202.84" height="249.65" transform="translate(34.7 516.52) rotate(-77.88)"/></clipPath><clipPath id="clip-path-13"><rect class="cls-1" x="104.98" y="-2.8" width="234.05" height="397.88" transform="translate(-16.38 372.01) rotate(-77.88)"/></clipPath><clipPath id="clip-path-16"><rect class="cls-1" x="123.5" y="346.93" width="124.83" height="257.45" transform="translate(-318.17 557.56) rotate(-77.88)"/></clipPath><clipPath id="clip-path-19"><rect class="cls-1" x="256.68" y="371.31" width="202.84" height="202.84" transform="matrix(0.21, -0.98, 0.98, 0.21, -179.28, 723.6)"/></clipPath><clipPath id="clip-path-22"><rect class="cls-1" x="268.11" y="440.17" width="32.24" height="39.68" transform="translate(-229.85 292.33) rotate(-40.22)"/></clipPath><clipPath id="clip-path-23"><rect class="cls-1" x="264.27" y="425.54" width="79.05" height="66.96" transform="translate(-242.62 525.5) rotate(-63.44)"/></clipPath><clipPath id="clip-path-24"><rect class="cls-1" x="264.24" y="425.52" width="79.05" height="66.96" transform="translate(-242.62 525.46) rotate(-63.44)"/></clipPath><clipPath id="clip-path-25"><rect class="cls-1" x="298.69" y="455.43" width="31" height="39.68" transform="translate(-232.62 315.29) rotate(-40.22)"/></clipPath><clipPath id="clip-path-28"><rect class="cls-1" x="276.56" y="423.28" width="32.24" height="39.68" transform="translate(-216.94 293.79) rotate(-40.22)"/></clipPath><clipPath id="clip-path-31"><rect class="cls-1" x="306.99" y="438.14" width="32.24" height="39.68" transform="translate(-219.34 316.96) rotate(-40.22)"/></clipPath><clipPath id="clip-path-34"><rect class="cls-1" x="293.99" y="410.08" width="37.2" height="63.24" transform="translate(-211.32 306.32) rotate(-40.22)"/></clipPath><clipPath id="clip-path-37"><rect class="cls-1" x="270.99" y="452.91" width="19.84" height="40.92" transform="translate(-239.26 293.35) rotate(-40.22)"/></clipPath><clipPath id="clip-path-40"><rect class="cls-1" x="286.74" y="473.6" width="32.24" height="32.24" transform="translate(-244.63 311.39) rotate(-40.22)"/></clipPath><clipPath id="clip-path-43"><rect class="cls-1" x="329.52" y="402.17" width="14.88" height="11.16" transform="translate(-38.26 34.91) rotate(-5.61)"/></clipPath><clipPath id="clip-path-44"><rect class="cls-1" x="329.04" y="387.6" width="23.25" height="27.9" transform="translate(-151.41 214.03) rotate(-28.83)"/></clipPath><clipPath id="clip-path-45"><rect class="cls-1" x="329.03" y="387.61" width="23.25" height="27.9" transform="translate(-151.41 214.03) rotate(-28.83)"/></clipPath><clipPath id="clip-path-46"><rect class="cls-1" x="340.14" y="396.14" width="14.88" height="11.16" transform="translate(-37.62 35.92) rotate(-5.61)"/></clipPath><clipPath id="clip-path-49"><rect class="cls-1" x="326.39" y="395.01" width="14.88" height="12.4" transform="translate(-37.64 34.57) rotate(-5.61)"/></clipPath><clipPath id="clip-path-52"><rect class="cls-1" x="337.13" y="390.21" width="14.88" height="12.4" transform="translate(-37.12 35.6) rotate(-5.61)"/></clipPath><clipPath id="clip-path-55"><rect class="cls-1" x="325.88" y="388.47" width="22.32" height="14.88" transform="translate(-37.11 34.86) rotate(-5.61)"/></clipPath><clipPath id="clip-path-58"><rect class="cls-1" x="333.59" y="406.81" width="13.64" height="8.68" transform="translate(-38.58 35.27) rotate(-5.61)"/></clipPath><clipPath id="clip-path-61"><rect class="cls-1" x="343.28" y="402.19" width="12.4" height="12.4" transform="translate(-38.27 36.14) rotate(-5.61)"/></clipPath><clipPath id="clip-path-64"><rect class="cls-1" x="285.13" y="340.15" width="29.76" height="22.32" transform="translate(-51.21 51.19) rotate(-8.99)"/></clipPath><clipPath id="clip-path-65"><rect class="cls-1" x="270.11" y="336.22" width="46.5" height="55.8" transform="translate(-148.93 212.36) rotate(-32.2)"/></clipPath><clipPath id="clip-path-66"><rect class="cls-1" x="270.13" y="336.21" width="46.5" height="55.81" transform="translate(-148.91 212.37) rotate(-32.2)"/></clipPath><clipPath id="clip-path-67"><rect class="cls-1" x="264.64" y="353.43" width="29.76" height="22.32" transform="translate(-53.53 48.15) rotate(-8.99)"/></clipPath><clipPath id="clip-path-70"><rect class="cls-1" x="292.16" y="351.61" width="29.76" height="24.8" transform="translate(-53.1 52.44) rotate(-8.99)"/></clipPath><clipPath id="clip-path-73"><rect class="cls-1" x="271.28" y="362.44" width="29.76" height="24.8" transform="translate(-55.05 49.31) rotate(-8.99)"/></clipPath><clipPath id="clip-path-76"><rect class="cls-1" x="278.92" y="360.09" width="44.64" height="29.76" transform="translate(-54.89 51.67) rotate(-8.99)"/></clipPath><clipPath id="clip-path-79"><rect class="cls-1" x="279.09" y="336.25" width="27.28" height="17.36" transform="translate(-50.3 49.97) rotate(-8.99)"/></clipPath><clipPath id="clip-path-82"><rect class="cls-1" x="262.54" y="339.11" width="24.8" height="24.8" transform="matrix(0.99, -0.16, 0.16, 0.99, -51.54, 47.27)"/></clipPath><clipPath id="clip-path-85"><rect class="cls-1" x="106.18" y="414.43" width="98.21" height="73.66" transform="translate(-58.52 24.6) rotate(-7.63)"/></clipPath><clipPath id="clip-path-86"><rect class="cls-1" x="101.53" y="317.44" width="153.44" height="184.14" transform="translate(-184.74 149.3) rotate(-30.84)"/></clipPath><clipPath id="clip-path-87"><rect class="cls-1" x="101.46" y="317.47" width="153.44" height="184.16" transform="translate(-184.77 149.27) rotate(-30.84)"/></clipPath><clipPath id="clip-path-88"><rect class="cls-1" x="174.84" y="372.21" width="98.21" height="73.66" transform="translate(-52.3 33.34) rotate(-7.63)"/></clipPath><clipPath id="clip-path-91"><rect class="cls-1" x="83.98" y="367.9" width="98.21" height="81.84" transform="translate(-53.08 21.28) rotate(-7.63)"/></clipPath><clipPath id="clip-path-94"><rect class="cls-1" x="153.73" y="333.79" width="98.21" height="81.84" transform="translate(-47.94 30.23) rotate(-7.63)"/></clipPath><clipPath id="clip-path-97"><rect class="cls-1" x="79.42" y="324.01" width="147.31" height="98.21" transform="translate(-48.16 23.62) rotate(-7.63)"/></clipPath><clipPath id="clip-path-100"><rect class="cls-1" x="133.81" y="444.23" width="90.02" height="57.29" transform="matrix(0.99, -0.13, 0.13, 0.99, -61.18, 27.92)"/></clipPath><clipPath id="clip-path-103"><rect class="cls-1" x="197.11" y="411.64" width="81.84" height="81.84" transform="translate(-57.96 35.59) rotate(-7.63)"/></clipPath></defs><g id="bigCube_copy" data-name="bigCube copy"><g class="cls-2"><g class="cls-3"><g class="cls-4"><path class="cls-5" d="M252.66,357.73l-7.29-37L38.68,361.22l22.6,115.25L268,435.92Z"/></g></g></g><g class="cls-6"><g class="cls-3"><g class="cls-4"><path class="cls-5" d="M245.37,320.7l7.29,37L268,435.92,474.67,395.4,452.1,280.15Z"/></g></g></g><g class="cls-7"><g class="cls-3"><g class="cls-4"><path class="cls-5" d="M14.34,237.11,221,196.56,245.37,320.7,38.68,361.22Z"/></g></g></g><g class="cls-8"><g class="cls-3"><g class="cls-4"><path class="cls-5" d="M221,196.56,427.76,156,452.1,280.15,245.37,320.7Z"/></g></g></g><g class="cls-9"><g class="cls-3"><g class="cls-4"><path class="cls-10" d="M245.37,320.7l-231-83.59L196.7,72.45,427.76,156Z"/></g></g></g><g class="cls-11"><g class="cls-3"><g class="cls-4"><path class="cls-5" d="M61.28,476.47l231,83.56L268,435.92Z"/></g></g></g><g class="cls-12"><g class="cls-3"><g class="cls-4"><path class="cls-5" d="M292.32,560,474.67,395.4,268,435.92Z"/></g></g></g></g><g id="Layer_1" data-name="Layer 1"><path class="cls-13" d="M622.26,295.16H573V380H545.2V170.27h69.43q35.43,0,54.52,16.14t19.08,47q0,19.59-10.58,34.14t-29.46,21.75l49.26,89V380H667.78ZM573,272.54h42.49q20.6,0,32.77-10.67t12.17-28.58q0-19.47-11.59-29.87t-33.49-10.53H573Z"/><path class="cls-13" d="M819,380q-2.29-4.61-3.74-16.42-18.59,19.31-44.37,19.3-23,0-37.81-13t-14.76-33q0-24.35,18.51-37.81t52.07-13.47h25.93V273.26q0-14-8.36-22.25t-24.63-8.28q-14.26,0-23.91,7.2t-9.65,17.43H721.51q0-11.67,8.28-22.54t22.47-17.22a75.68,75.68,0,0,1,31.19-6.34q26.92,0,42.2,13.47t15.85,37.09v71.74q0,21.46,5.47,34.14V380ZM774.8,359.69a46.84,46.84,0,0,0,23.77-6.48q11.23-6.48,16.28-16.85v-32H794q-49,0-49,28.66,0,12.54,8.35,19.59T774.8,359.69Z"/><path class="cls-13" d="M883.41,182.81a15.91,15.91,0,0,1,4-10.95q4-4.47,11.74-4.47t11.81,4.47a15.74,15.74,0,0,1,4,10.95,15.21,15.21,0,0,1-4,10.8q-4,4.32-11.81,4.32t-11.74-4.32A15.38,15.38,0,0,1,883.41,182.81ZM912.22,380H885.57V224.15h26.65Z"/><path class="cls-13" d="M980.06,224.15l.87,19.59q17.87-22.49,46.67-22.48,49.41,0,49.84,55.75V380h-26.65V276.87q-.15-16.86-7.71-24.92t-23.55-8.07a38.46,38.46,0,0,0-22.76,6.91,46.86,46.86,0,0,0-15.26,18.15V380H954.86V224.15Z"/><path class="cls-13" d="M1182.3,382.88q-31.69,0-51.57-20.81t-19.87-55.68V301.5q0-23.19,8.85-41.42a69.22,69.22,0,0,1,24.78-28.52,62.34,62.34,0,0,1,34.5-10.3q30.39,0,47.24,20t16.86,57.33v11.09H1137.5q.59,23,13.47,37.23t32.77,14.19q14.12,0,23.91-5.76a59.93,59.93,0,0,0,17.14-15.27l16.28,12.68Q1221.48,382.89,1182.3,382.88ZM1179,243.16a35.53,35.53,0,0,0-27.08,11.74q-11,11.75-13.54,32.91h78.07v-2q-1.15-20.31-11-31.48T1179,243.16Z"/><path class="cls-13" d="M1364.66,338.66q0-10.8-8.14-16.78t-28.38-10.3q-20.23-4.32-32.12-10.37t-17.57-14.41q-5.68-8.34-5.69-19.87,0-19.16,16.2-32.41t41.42-13.26q26.49,0,43,13.69t16.5,35h-26.8q0-10.95-9.29-18.87t-23.4-7.92q-14.55,0-22.76,6.34a19.91,19.91,0,0,0-8.21,16.56q0,9.66,7.63,14.55t27.59,9.36q19.95,4.47,32.33,10.66t18.37,14.91q6,8.71,6,21.25,0,20.88-16.71,33.49t-43.36,12.6q-18.72,0-33.13-6.63a53.8,53.8,0,0,1-22.54-18.5,44.62,44.62,0,0,1-8.14-25.72h26.65q.72,13.39,10.73,21.25t26.43,7.85q15.12,0,24.27-6.12T1364.66,338.66Z"/><path class="cls-13" d="M1503.23,380V170.27h59.2q27.36,0,48.4,12.1a81.86,81.86,0,0,1,32.48,34.43q11.46,22.33,11.6,51.28v13.39q0,29.68-11.45,52a80.6,80.6,0,0,1-32.7,34.29q-21.26,12-49.48,12.24Zm27.66-187.11V357.38H1560q32,0,49.77-19.89t17.79-56.66V268.58q0-35.76-16.78-55.58t-47.61-20.11Z"/><path class="cls-13" d="M1757.18,382.88q-31.7,0-51.57-20.81t-19.88-55.68V301.5q0-23.19,8.86-41.42a69.15,69.15,0,0,1,24.78-28.52,62.33,62.33,0,0,1,34.49-10.3q30.39,0,47.25,20T1818,298.62v11.09H1712.38q.57,23,13.47,37.23t32.77,14.19q14.12,0,23.91-5.76a60.06,60.06,0,0,0,17.14-15.27L1816,352.78Q1796.36,382.89,1757.18,382.88Zm-3.32-139.72a35.54,35.54,0,0,0-27.08,11.74q-10.93,11.75-13.54,32.91h78.08v-2q-1.15-20.31-11-31.48T1753.86,243.16Z"/><path class="cls-13" d="M1873.85,224.15l.72,17.28q17.15-20.16,46.24-20.17,32.7,0,44.51,25.07a59,59,0,0,1,20.24-18.15q12.45-6.92,29.45-6.92,51.28,0,52.15,54.31V380h-26.65V277.15q0-16.71-7.63-25t-25.64-8.28q-14.85,0-24.64,8.86t-11.38,23.84V380h-26.79V277.87q0-34-33.27-34-26.22,0-35.87,22.33V380h-26.65V224.15Z"/><path class="cls-13" d="M2107.49,182.81a15.91,15.91,0,0,1,4-10.95q4-4.47,11.74-4.47t11.81,4.47a15.74,15.74,0,0,1,4,10.95,15.21,15.21,0,0,1-4,10.8q-4,4.32-11.81,4.32t-11.74-4.32A15.38,15.38,0,0,1,2107.49,182.81ZM2136.3,380h-26.65V224.15h26.65Z"/><path class="cls-13" d="M2204.14,224.15l.87,19.59q17.85-22.49,46.67-22.48,49.4,0,49.83,55.75V380h-26.64V276.87q-.15-16.86-7.71-24.92t-23.55-8.07a38.46,38.46,0,0,0-22.76,6.91,47,47,0,0,0-15.27,18.15V380h-26.65V224.15Z"/><path class="cls-13" d="M2377.86,186.41v37.74H2407v20.59h-29.1v96.78q0,9.38,3.89,14.06t13.25,4.69a64.63,64.63,0,0,0,12.67-1.73V380a77.59,77.59,0,0,1-20.45,2.86q-17.86,0-26.93-10.8t-9.08-30.68V244.74h-28.38V224.15h28.38V186.41Z"/></g><g id="cube_group" data-name="cube group"><g id="cube3"><g class="cls-14"><g class="cls-15"><g class="cls-16"><path class="cls-17" d="M300.76,465l2.68-5.37-29.94-15-8.35,16.7,30,15Z"/></g></g></g><g class="cls-18"><g class="cls-15"><g class="cls-16"><path class="cls-17" d="M303.44,459.64,300.76,465l-5.66,11.33,29.94,15,8.35-16.69Z"/></g></g></g><g class="cls-19"><g class="cls-15"><g class="cls-16"><path class="cls-17" d="M282.49,426.69l29.94,15-9,18-29.94-15Z"/></g></g></g><g class="cls-20"><g class="cls-15"><g class="cls-16"><path class="cls-17" d="M312.43,441.66l29.95,15-9,18-29.95-15Z"/></g></g></g><g class="cls-21"><g class="cls-15"><g class="cls-16"><path class="cls-22" d="M303.44,459.64l-20.95-32.95,38.93-3,21,32.95Z"/></g></g></g><g class="cls-23"><g class="cls-15"><g class="cls-16"><path class="cls-17" d="M265.15,461.37l21,32.95,9-18Z"/></g></g></g><g class="cls-24"><g class="cls-15"><g class="cls-16"><path class="cls-17" d="M286.11,494.32l38.93-3-29.94-15Z"/></g></g></g></g><g id="cube1"><g class="cls-25"><g class="cls-26"><g class="cls-27"><path class="cls-17" d="M341.79,403.64l-1-1.86-10.19,5.6,3.18,5.78L344,407.55Z"/></g></g></g><g class="cls-28"><g class="cls-26"><g class="cls-27"><path class="cls-17" d="M340.78,401.78l1,1.86,2.16,3.91,10.18-5.6L351,396.17Z"/></g></g></g><g class="cls-29"><g class="cls-26"><g class="cls-27"><path class="cls-17" d="M327.17,401.17l10.18-5.61,3.43,6.22-10.19,5.6Z"/></g></g></g><g class="cls-30"><g class="cls-26"><g class="cls-27"><path class="cls-17" d="M337.35,395.56l10.19-5.6,3.42,6.21-10.18,5.61Z"/></g></g></g><g class="cls-31"><g class="cls-26"><g class="cls-27"><path class="cls-22" d="M340.78,401.78l-13.61-.61,6.76-11.83,13.61.62Z"/></g></g></g><g class="cls-32"><g class="cls-26"><g class="cls-27"><path class="cls-17" d="M333.77,413.16l13.6.61L344,407.55Z"/></g></g></g><g class="cls-33"><g class="cls-26"><g class="cls-27"><path class="cls-17" d="M347.37,413.77,354.13,402,344,407.55Z"/></g></g></g></g><g id="cube2"><g class="cls-34"><g class="cls-35"><g class="cls-36"><path class="cls-17" d="M290.85,360.1l2.25,3.58,19.68-12.39-7-11.15-19.68,12.39Z"/></g></g></g><g class="cls-37"><g class="cls-35"><g class="cls-36"><path class="cls-17" d="M293.1,363.68l-2.25-3.58-4.77-7.57-19.67,12.39,7,11.15Z"/></g></g></g><g class="cls-38"><g class="cls-35"><g class="cls-36"><path class="cls-17" d="M320.34,363.3l-19.67,12.39-7.57-12,19.68-12.39Z"/></g></g></g><g class="cls-39"><g class="cls-35"><g class="cls-36"><path class="cls-17" d="M300.67,375.69,281,388.08l-7.55-12,19.66-12.39Z"/></g></g></g><g class="cls-40"><g class="cls-35"><g class="cls-36"><path class="cls-22" d="M293.1,363.68l27.24-.38-12.11,24.4-27.24.38Z"/></g></g></g><g class="cls-41"><g class="cls-35"><g class="cls-36"><path class="cls-17" d="M305.76,340.14l-27.24.39,7.56,12Z"/></g></g></g><g class="cls-42"><g class="cls-35"><g class="cls-36"><path class="cls-17" d="M278.52,340.53l-12.11,24.39,19.67-12.39Z"/></g></g></g></g><g id="cube4"><g class="cls-43"><g class="cls-44"><g class="cls-45"><path class="cls-17" d="M186.2,423l-7.15-12-65.89,39.34,22.29,37.33,65.88-39.33Z"/></g></g></g><g class="cls-46"><g class="cls-44"><g class="cls-45"><path class="cls-17" d="M179.05,411l7.15,12,15.13,25.33L267.19,409,244.9,371.65Z"/></g></g></g><g class="cls-47"><g class="cls-44"><g class="cls-45"><path class="cls-17" d="M89.17,410.12,155,370.79l24,40.19-65.89,39.34Z"/></g></g></g><g class="cls-48"><g class="cls-44"><g class="cls-45"><path class="cls-17" d="M155,370.79l65.89-39.34,24,40.2L179.05,411Z"/></g></g></g><g class="cls-49"><g class="cls-44"><g class="cls-45"><path class="cls-22" d="M179.05,411l-89.88-.86L131,330.55l89.89.9Z"/></g></g></g><g class="cls-50"><g class="cls-44"><g class="cls-45"><path class="cls-17" d="M135.45,487.65l89.88.87-24-40.2Z"/></g></g></g><g class="cls-51"><g class="cls-44"><g class="cls-45"><path class="cls-17" d="M225.33,488.52,267.19,409l-65.86,39.33Z"/></g></g></g></g></g></svg>