<svg xmlns="http://www.w3.org/2000/svg" viewBox="0 0 308.32 245.31"><defs><style>.cls-1{fill:#cf0074;}.cls-2{fill:#b7006d;}.cls-3{fill:#fc055e;}.cls-4{fill:#990079;}.cls-5{fill:#e87f03;}.cls-6{fill:#fc9200;}.cls-7{fill:#fdc54a;}</style></defs><g id="Layer_2" data-name="Layer 2"><g id="Layer_1-2" data-name="Layer 1"><polygon class="cls-1" points="90.88 35.44 90.88 140.37 181.76 87.9 90.88 35.44"/><polygon class="cls-1" points="0 87.9 90.88 140.37 90.88 35.44 0 87.9"/><polygon class="cls-2" points="0 87.9 0 192.84 90.88 140.37 0 87.9"/><polygon class="cls-3" points="201.48 39.88 166.95 59.81 166.95 19.94 201.48 39.88"/><polygon class="cls-3" points="201.48 39.88 201.48 79.75 166.95 59.81 201.48 39.88"/><polygon class="cls-2" points="0 192.84 90.88 245.31 90.88 140.37 0 192.84"/><polygon class="cls-3" points="90.88 140.37 90.88 245.31 181.76 192.84 90.88 140.37"/><polygon class="cls-3" points="90.88 140.37 181.76 192.84 181.76 87.9 90.88 140.37"/><polygon class="cls-1" points="201.48 0 201.48 39.88 166.95 19.94 201.48 0"/><polygon class="cls-1" points="236.02 19.94 201.48 39.88 201.48 0 236.02 19.94"/><polygon class="cls-4" points="236.02 19.94 236.02 59.81 201.48 39.88 236.02 19.94"/><polygon class="cls-4" points="236.02 59.81 201.48 79.75 201.48 39.88 236.02 59.81"/><polygon class="cls-5" points="271.31 38.43 249.5 51.02 249.5 25.83 271.31 38.43"/><polygon class="cls-5" points="271.31 38.43 271.31 63.61 249.5 51.02 271.31 38.43"/><polygon class="cls-6" points="271.31 13.24 271.31 38.43 249.5 25.83 271.31 13.24"/><polygon class="cls-6" points="293.12 25.83 271.31 38.43 271.31 13.24 293.12 25.83"/><polygon class="cls-7" points="293.12 25.83 293.12 51.02 271.31 38.43 293.12 25.83"/><polygon class="cls-7" points="293.12 51.02 271.31 63.61 271.31 38.43 293.12 51.02"/><polygon class="cls-5" points="251.98 133.12 195.63 165.65 195.63 100.59 251.98 133.12"/><polygon class="cls-5" points="251.98 133.12 251.98 198.18 195.63 165.65 251.98 133.12"/><polygon class="cls-7" points="251.98 68.06 251.98 133.12 195.63 100.59 251.98 68.06"/><polygon class="cls-7" points="308.32 100.59 251.98 133.12 251.98 68.06 308.32 100.59"/><polygon class="cls-6" points="308.32 100.59 308.32 165.65 251.98 133.12 308.32 100.59"/><polygon class="cls-6" points="308.32 165.65 251.98 198.18 251.98 133.12 308.32 165.65"/></g></g></svg>