<svg xmlns="http://www.w3.org/2000/svg" xmlns:xlink="http://www.w3.org/1999/xlink" viewBox="0 0 460.33 487.58"><defs><style>.cls-1{fill:none;}.cls-2{clip-path:url(#clip-path);}.cls-3{clip-path:url(#clip-path-2);}.cls-4{clip-path:url(#clip-path-3);}.cls-5{fill:#377dff;}.cls-6{clip-path:url(#clip-path-4);}.cls-7{clip-path:url(#clip-path-7);}.cls-8{clip-path:url(#clip-path-10);}.cls-9{clip-path:url(#clip-path-13);}.cls-10{fill:#a3f2ff;}.cls-11{clip-path:url(#clip-path-16);}.cls-12{clip-path:url(#clip-path-19);}.cls-13{clip-path:url(#clip-path-22);}.cls-14{clip-path:url(#clip-path-23);}.cls-15{clip-path:url(#clip-path-24);}.cls-16{fill:#63cb85;}.cls-17{clip-path:url(#clip-path-25);}.cls-18{clip-path:url(#clip-path-28);}.cls-19{clip-path:url(#clip-path-31);}.cls-20{clip-path:url(#clip-path-34);}.cls-21{fill:#e4ffd9;}.cls-22{clip-path:url(#clip-path-37);}.cls-23{clip-path:url(#clip-path-40);}.cls-24{clip-path:url(#clip-path-43);}.cls-25{clip-path:url(#clip-path-44);}.cls-26{clip-path:url(#clip-path-45);}.cls-27{clip-path:url(#clip-path-46);}.cls-28{clip-path:url(#clip-path-49);}.cls-29{clip-path:url(#clip-path-52);}.cls-30{clip-path:url(#clip-path-55);}.cls-31{clip-path:url(#clip-path-58);}.cls-32{clip-path:url(#clip-path-61);}.cls-33{clip-path:url(#clip-path-64);}.cls-34{clip-path:url(#clip-path-65);}.cls-35{clip-path:url(#clip-path-66);}.cls-36{clip-path:url(#clip-path-67);}.cls-37{clip-path:url(#clip-path-70);}.cls-38{clip-path:url(#clip-path-73);}.cls-39{clip-path:url(#clip-path-76);}.cls-40{clip-path:url(#clip-path-79);}.cls-41{clip-path:url(#clip-path-82);}.cls-42{clip-path:url(#clip-path-85);}.cls-43{clip-path:url(#clip-path-86);}.cls-44{clip-path:url(#clip-path-87);}.cls-45{clip-path:url(#clip-path-88);}.cls-46{clip-path:url(#clip-path-91);}.cls-47{clip-path:url(#clip-path-94);}.cls-48{clip-path:url(#clip-path-97);}.cls-49{clip-path:url(#clip-path-100);}.cls-50{clip-path:url(#clip-path-103);}</style><clipPath id="clip-path" transform="translate(-29.43 -32.49)"><rect class="cls-1" x="64.75" y="231.57" width="202.84" height="249.65" transform="translate(-217.17 444.04) rotate(-77.88)"/></clipPath><clipPath id="clip-path-2" transform="translate(-29.43 -32.49)"><rect class="cls-1" x="49.2" y="27.56" width="421.29" height="497.36" transform="translate(-48.3 55.16) rotate(-11.09)"/></clipPath><clipPath id="clip-path-3" transform="translate(-29.43 -32.49)"><polygon class="cls-1" points="5.05 72.79 418.47 -8.28 514.15 479.78 100.76 560.85 5.05 72.79"/></clipPath><clipPath id="clip-path-4" transform="translate(-29.43 -32.49)"><rect class="cls-1" x="276.54" y="192.43" width="195.04" height="249.65" transform="translate(-14.66 616.37) rotate(-77.88)"/></clipPath><clipPath id="clip-path-7" transform="translate(-29.43 -32.49)"><rect class="cls-1" x="41.92" y="114.96" width="202.84" height="249.65" transform="translate(-121.2 329.58) rotate(-77.88)"/></clipPath><clipPath id="clip-path-10" transform="translate(-29.43 -32.49)"><rect class="cls-1" x="250.63" y="72" width="202.84" height="249.65" transform="translate(85.69 499.7) rotate(-77.88)"/></clipPath><clipPath id="clip-path-13" transform="translate(-29.43 -32.49)"><rect class="cls-1" x="120.07" y="-42.76" width="234.05" height="397.88" transform="translate(34.61 355.2) rotate(-77.88)"/></clipPath><clipPath id="clip-path-16" transform="translate(-29.43 -32.49)"><rect class="cls-1" x="138.6" y="306.97" width="124.83" height="257.45" transform="translate(-267.18 540.75) rotate(-77.88)"/></clipPath><clipPath id="clip-path-19" transform="translate(-29.43 -32.49)"><rect class="cls-1" x="271.77" y="331.35" width="202.84" height="202.84" transform="matrix(0.21, -0.98, 0.98, 0.21, -128.29, 706.79)"/></clipPath><clipPath id="clip-path-22" transform="translate(-29.43 -32.49)"><rect class="cls-1" x="283.2" y="400.21" width="32.24" height="39.68" transform="translate(-200.48 292.63) rotate(-40.22)"/></clipPath><clipPath id="clip-path-23" transform="translate(-29.43 -32.49)"><rect class="cls-1" x="279.37" y="385.58" width="79.05" height="66.96" transform="translate(-198.53 516.91) rotate(-63.44)"/></clipPath><clipPath id="clip-path-24" transform="translate(-29.43 -32.49)"><rect class="cls-1" x="279.33" y="385.56" width="79.05" height="66.96" transform="translate(-198.54 516.87) rotate(-63.44)"/></clipPath><clipPath id="clip-path-25" transform="translate(-29.43 -32.49)"><rect class="cls-1" x="313.78" y="415.47" width="31" height="39.68" transform="translate(-203.25 315.59) rotate(-40.22)"/></clipPath><clipPath id="clip-path-28" transform="translate(-29.43 -32.49)"><rect class="cls-1" x="291.65" y="383.32" width="32.24" height="39.68" transform="translate(-187.57 294.09) rotate(-40.22)"/></clipPath><clipPath id="clip-path-31" transform="translate(-29.43 -32.49)"><rect class="cls-1" x="322.09" y="398.18" width="32.24" height="39.68" transform="translate(-189.97 317.26) rotate(-40.22)"/></clipPath><clipPath id="clip-path-34" transform="translate(-29.43 -32.49)"><rect class="cls-1" x="309.09" y="370.12" width="37.2" height="63.24" transform="translate(-181.95 306.62) rotate(-40.22)"/></clipPath><clipPath id="clip-path-37" transform="translate(-29.43 -32.49)"><rect class="cls-1" x="286.09" y="412.95" width="19.84" height="40.92" transform="translate(-209.89 293.65) rotate(-40.22)"/></clipPath><clipPath id="clip-path-40" transform="translate(-29.43 -32.49)"><rect class="cls-1" x="301.84" y="433.64" width="32.24" height="32.24" transform="translate(-215.26 311.69) rotate(-40.22)"/></clipPath><clipPath id="clip-path-43" transform="translate(-29.43 -32.49)"><rect class="cls-1" x="344.61" y="362.21" width="14.88" height="11.16" transform="translate(-34.28 36.2) rotate(-5.61)"/></clipPath><clipPath id="clip-path-44" transform="translate(-29.43 -32.49)"><rect class="cls-1" x="344.13" y="347.64" width="23.25" height="27.9" transform="translate(-130.27 216.36) rotate(-28.83)"/></clipPath><clipPath id="clip-path-45" transform="translate(-29.43 -32.49)"><rect class="cls-1" x="344.12" y="347.65" width="23.25" height="27.9" transform="translate(-130.27 216.35) rotate(-28.83)"/></clipPath><clipPath id="clip-path-46" transform="translate(-29.43 -32.49)"><rect class="cls-1" x="355.24" y="356.19" width="14.88" height="11.16" transform="translate(-33.64 37.21) rotate(-5.61)"/></clipPath><clipPath id="clip-path-49" transform="translate(-29.43 -32.49)"><rect class="cls-1" x="341.48" y="355.05" width="14.88" height="12.4" transform="translate(-33.66 35.86) rotate(-5.61)"/></clipPath><clipPath id="clip-path-52" transform="translate(-29.43 -32.49)"><rect class="cls-1" x="352.22" y="350.26" width="14.88" height="12.4" transform="translate(-33.14 36.89) rotate(-5.61)"/></clipPath><clipPath id="clip-path-55" transform="translate(-29.43 -32.49)"><rect class="cls-1" x="340.98" y="348.51" width="22.32" height="14.88" transform="translate(-33.13 36.15) rotate(-5.61)"/></clipPath><clipPath id="clip-path-58" transform="translate(-29.43 -32.49)"><rect class="cls-1" x="348.68" y="366.85" width="13.64" height="8.68" transform="translate(-34.6 36.55) rotate(-5.61)"/></clipPath><clipPath id="clip-path-61" transform="translate(-29.43 -32.49)"><rect class="cls-1" x="358.38" y="362.23" width="12.4" height="12.4" transform="translate(-34.29 37.42) rotate(-5.61)"/></clipPath><clipPath id="clip-path-64" transform="translate(-29.43 -32.49)"><rect class="cls-1" x="300.22" y="300.19" width="29.76" height="22.32" transform="translate(-44.78 53.06) rotate(-8.99)"/></clipPath><clipPath id="clip-path-65" transform="translate(-29.43 -32.49)"><rect class="cls-1" x="285.2" y="296.26" width="46.5" height="55.8" transform="translate(-125.31 214.26) rotate(-32.2)"/></clipPath><clipPath id="clip-path-66" transform="translate(-29.43 -32.49)"><rect class="cls-1" x="285.22" y="296.25" width="46.5" height="55.81" transform="translate(-125.3 214.27) rotate(-32.2)"/></clipPath><clipPath id="clip-path-67" transform="translate(-29.43 -32.49)"><rect class="cls-1" x="279.73" y="313.48" width="29.76" height="22.32" transform="translate(-47.1 50.02) rotate(-8.99)"/></clipPath><clipPath id="clip-path-70" transform="translate(-29.43 -32.49)"><rect class="cls-1" x="307.25" y="311.65" width="29.76" height="24.8" transform="translate(-46.67 54.31) rotate(-8.99)"/></clipPath><clipPath id="clip-path-73" transform="translate(-29.43 -32.49)"><rect class="cls-1" x="286.37" y="322.49" width="29.76" height="24.8" transform="translate(-48.62 51.18) rotate(-8.99)"/></clipPath><clipPath id="clip-path-76" transform="translate(-29.43 -32.49)"><rect class="cls-1" x="294.02" y="320.13" width="44.64" height="29.76" transform="translate(-48.46 53.54) rotate(-8.99)"/></clipPath><clipPath id="clip-path-79" transform="translate(-29.43 -32.49)"><rect class="cls-1" x="294.18" y="296.29" width="27.28" height="17.36" transform="translate(-43.87 51.84) rotate(-8.99)"/></clipPath><clipPath id="clip-path-82" transform="translate(-29.43 -32.49)"><rect class="cls-1" x="277.63" y="299.15" width="24.8" height="24.8" transform="matrix(0.99, -0.16, 0.16, 0.99, -45.12, 49.14)"/></clipPath><clipPath id="clip-path-85" transform="translate(-29.43 -32.49)"><rect class="cls-1" x="121.27" y="374.47" width="98.21" height="73.66" transform="translate(-53.08 26.25) rotate(-7.63)"/></clipPath><clipPath id="clip-path-86" transform="translate(-29.43 -32.49)"><rect class="cls-1" x="116.63" y="277.48" width="153.44" height="184.14" transform="translate(-162.12 151.39) rotate(-30.84)"/></clipPath><clipPath id="clip-path-87" transform="translate(-29.43 -32.49)"><rect class="cls-1" x="116.55" y="277.52" width="153.44" height="184.16" transform="translate(-162.15 151.35) rotate(-30.84)"/></clipPath><clipPath id="clip-path-88" transform="translate(-29.43 -32.49)"><rect class="cls-1" x="189.93" y="332.25" width="98.21" height="73.66" transform="translate(-46.87 34.99) rotate(-7.63)"/></clipPath><clipPath id="clip-path-91" transform="translate(-29.43 -32.49)"><rect class="cls-1" x="99.07" y="327.94" width="98.21" height="81.84" transform="translate(-47.64 22.93) rotate(-7.63)"/></clipPath><clipPath id="clip-path-94" transform="translate(-29.43 -32.49)"><rect class="cls-1" x="168.82" y="293.83" width="98.21" height="81.84" transform="translate(-42.5 31.88) rotate(-7.63)"/></clipPath><clipPath id="clip-path-97" transform="translate(-29.43 -32.49)"><rect class="cls-1" x="94.51" y="284.05" width="147.31" height="98.21" transform="translate(-42.73 25.27) rotate(-7.63)"/></clipPath><clipPath id="clip-path-100" transform="translate(-29.43 -32.49)"><rect class="cls-1" x="148.9" y="404.28" width="90.02" height="57.29" transform="matrix(0.99, -0.13, 0.13, 0.99, -55.74, 29.56)"/></clipPath><clipPath id="clip-path-103" transform="translate(-29.43 -32.49)"><rect class="cls-1" x="212.2" y="371.69" width="81.84" height="81.84" transform="translate(-52.52 37.24) rotate(-7.63)"/></clipPath></defs><g id="Layer_2" data-name="Layer 2"><g id="bigCube_copy" data-name="bigCube copy"><g class="cls-2"><g class="cls-3"><g class="cls-4"><path class="cls-5" d="M267.76,317.78l-7.29-37L53.78,321.26,76.37,436.52,283.07,396Z" transform="translate(-29.43 -32.49)"/></g></g></g><g class="cls-6"><g class="cls-3"><g class="cls-4"><path class="cls-5" d="M260.47,280.74l7.29,37L283.07,396l206.69-40.52L467.19,240.19Z" transform="translate(-29.43 -32.49)"/></g></g></g><g class="cls-7"><g class="cls-3"><g class="cls-4"><path class="cls-5" d="M29.43,197.15l206.7-40.55,24.34,124.14L53.78,321.26Z" transform="translate(-29.43 -32.49)"/></g></g></g><g class="cls-8"><g class="cls-3"><g class="cls-4"><path class="cls-5" d="M236.13,156.6l206.72-40.51,24.34,124.1L260.47,280.74Z" transform="translate(-29.43 -32.49)"/></g></g></g><g class="cls-9"><g class="cls-3"><g class="cls-4"><path class="cls-10" d="M260.47,280.74l-231-83.59L211.79,32.49l231.06,83.6Z" transform="translate(-29.43 -32.49)"/></g></g></g><g class="cls-11"><g class="cls-3"><g class="cls-4"><path class="cls-5" d="M76.37,436.52l231,83.55L283.07,396Z" transform="translate(-29.43 -32.49)"/></g></g></g><g class="cls-12"><g class="cls-3"><g class="cls-4"><path class="cls-5" d="M307.41,520.07,489.76,355.44,283.07,396Z" transform="translate(-29.43 -32.49)"/></g></g></g></g><g id="cube_group" data-name="cube group"><g id="cube3"><g class="cls-13"><g class="cls-14"><g class="cls-15"><path class="cls-16" d="M315.86,425.05l2.67-5.36-29.94-15-8.35,16.69,29.95,15Z" transform="translate(-29.43 -32.49)"/></g></g></g><g class="cls-17"><g class="cls-14"><g class="cls-15"><path class="cls-16" d="M318.53,419.69l-2.67,5.36-5.67,11.33,29.94,15,8.35-16.69Z" transform="translate(-29.43 -32.49)"/></g></g></g><g class="cls-18"><g class="cls-14"><g class="cls-15"><path class="cls-16" d="M297.58,386.74l29.95,15-9,18-29.94-15Z" transform="translate(-29.43 -32.49)"/></g></g></g><g class="cls-19"><g class="cls-14"><g class="cls-15"><path class="cls-16" d="M327.53,401.7l29.94,15-9,18-30-15Z" transform="translate(-29.43 -32.49)"/></g></g></g><g class="cls-20"><g class="cls-14"><g class="cls-15"><path class="cls-21" d="M318.53,419.69l-20.95-32.95,38.93-3,21,33Z" transform="translate(-29.43 -32.49)"/></g></g></g><g class="cls-22"><g class="cls-14"><g class="cls-15"><path class="cls-16" d="M280.24,421.41l21,32.95,9-18Z" transform="translate(-29.43 -32.49)"/></g></g></g><g class="cls-23"><g class="cls-14"><g class="cls-15"><path class="cls-16" d="M301.2,454.36l38.93-3-29.94-15Z" transform="translate(-29.43 -32.49)"/></g></g></g></g><g id="cube1"><g class="cls-24"><g class="cls-25"><g class="cls-26"><path class="cls-16" d="M356.89,363.68l-1-1.86-10.19,5.61,3.18,5.77L359,367.59Z" transform="translate(-29.43 -32.49)"/></g></g></g><g class="cls-27"><g class="cls-25"><g class="cls-26"><path class="cls-16" d="M355.87,361.82l1,1.86,2.15,3.91,10.18-5.6-3.17-5.77Z" transform="translate(-29.43 -32.49)"/></g></g></g><g class="cls-28"><g class="cls-25"><g class="cls-26"><path class="cls-16" d="M342.26,361.21l10.18-5.6,3.43,6.21-10.19,5.61Z" transform="translate(-29.43 -32.49)"/></g></g></g><g class="cls-29"><g class="cls-25"><g class="cls-26"><path class="cls-16" d="M352.44,355.61,362.63,350l3.42,6.22-10.18,5.6Z" transform="translate(-29.43 -32.49)"/></g></g></g><g class="cls-30"><g class="cls-25"><g class="cls-26"><path class="cls-21" d="M355.87,361.82l-13.61-.61L349,349.39l13.61.61Z" transform="translate(-29.43 -32.49)"/></g></g></g><g class="cls-31"><g class="cls-25"><g class="cls-26"><path class="cls-16" d="M348.86,373.2l13.6.61L359,367.59Z" transform="translate(-29.43 -32.49)"/></g></g></g><g class="cls-32"><g class="cls-25"><g class="cls-26"><path class="cls-16" d="M362.46,373.81,369.22,362,359,367.59Z" transform="translate(-29.43 -32.49)"/></g></g></g></g><g id="cube2"><g class="cls-33"><g class="cls-34"><g class="cls-35"><path class="cls-16" d="M305.94,320.14l2.25,3.58,19.68-12.39-7-11.15-19.68,12.39Z" transform="translate(-29.43 -32.49)"/></g></g></g><g class="cls-36"><g class="cls-34"><g class="cls-35"><path class="cls-16" d="M308.19,323.72l-2.25-3.58-4.77-7.57L281.51,325l7,11.15Z" transform="translate(-29.43 -32.49)"/></g></g></g><g class="cls-37"><g class="cls-34"><g class="cls-35"><path class="cls-16" d="M335.43,323.34l-19.67,12.39-7.57-12,19.68-12.39Z" transform="translate(-29.43 -32.49)"/></g></g></g><g class="cls-38"><g class="cls-34"><g class="cls-35"><path class="cls-16" d="M315.76,335.73l-19.67,12.39-7.56-12,19.66-12.39Z" transform="translate(-29.43 -32.49)"/></g></g></g><g class="cls-39"><g class="cls-34"><g class="cls-35"><path class="cls-21" d="M308.19,323.72l27.24-.38-12.11,24.4-27.23.38Z" transform="translate(-29.43 -32.49)"/></g></g></g><g class="cls-40"><g class="cls-34"><g class="cls-35"><path class="cls-16" d="M320.85,300.18l-27.23.39,7.55,12Z" transform="translate(-29.43 -32.49)"/></g></g></g><g class="cls-41"><g class="cls-34"><g class="cls-35"><path class="cls-16" d="M293.62,300.57,281.51,325l19.66-12.39Z" transform="translate(-29.43 -32.49)"/></g></g></g></g><g id="cube4"><g class="cls-42"><g class="cls-43"><g class="cls-44"><path class="cls-16" d="M201.29,383l-7.15-12-65.89,39.33,22.29,37.33,65.89-39.33Z" transform="translate(-29.43 -32.49)"/></g></g></g><g class="cls-45"><g class="cls-43"><g class="cls-44"><path class="cls-16" d="M194.14,371l7.15,12,15.14,25.33L282.28,369,260,331.7Z" transform="translate(-29.43 -32.49)"/></g></g></g><g class="cls-46"><g class="cls-43"><g class="cls-44"><path class="cls-16" d="M104.26,370.16l65.85-39.33,24,40.2-65.89,39.33Z" transform="translate(-29.43 -32.49)"/></g></g></g><g class="cls-47"><g class="cls-43"><g class="cls-44"><path class="cls-16" d="M170.11,330.83,236,291.49l24,40.21L194.14,371Z" transform="translate(-29.43 -32.49)"/></g></g></g><g class="cls-48"><g class="cls-43"><g class="cls-44"><path class="cls-21" d="M194.14,371l-89.88-.87,41.86-79.56,89.88.89Z" transform="translate(-29.43 -32.49)"/></g></g></g><g class="cls-49"><g class="cls-43"><g class="cls-44"><path class="cls-16" d="M150.54,447.69l89.88.87-24-40.2Z" transform="translate(-29.43 -32.49)"/></g></g></g><g class="cls-50"><g class="cls-43"><g class="cls-44"><path class="cls-16" d="M240.42,448.56,282.28,369l-65.85,39.33Z" transform="translate(-29.43 -32.49)"/></g></g></g></g></g></g></svg>